<svg xmlns="http://www.w3.org/2000/svg" width="1920" height="1080" viewBox="0 0 1920 1080">
  <defs>
    <linearGradient id="bg" x1="0" y1="0" x2="1" y2="1">
      <stop offset="0" stop-color="#111113"/>
      <stop offset="1" stop-color="#0a0a0b"/>
    </linearGradient>
  </defs>
  <rect width="1920" height="1080" fill="url(#bg)"/>
  <g clip-path="url(#clip)"><rect x="-1080" y="0" width="30" height="2700" fill="rgba(255,42,60,0.06)" transform="rotate(35 0 0)"/><rect x="-1020" y="0" width="30" height="2700" fill="rgba(255,42,60,0.06)" transform="rotate(35 60 0)"/><rect x="-960" y="0" width="30" height="2700" fill="rgba(255,42,60,0.06)" transform="rotate(35 120 0)"/><rect x="-900" y="0" width="30" height="2700" fill="rgba(255,42,60,0.06)" transform="rotate(35 180 0)"/><rect x="-840" y="0" width="30" height="2700" fill="rgba(255,42,60,0.06)" transform="rotate(35 240 0)"/><rect x="-780" y="0" width="30" height="2700" fill="rgba(255,42,60,0.06)" transform="rotate(35 300 0)"/><rect x="-720" y="0" width="30" height="2700" fill="rgba(255,42,60,0.06)" transform="rotate(35 360 0)"/><rect x="-660" y="0" width="30" height="2700" fill="rgba(255,42,60,0.06)" transform="rotate(35 420 0)"/><rect x="-600" y="0" width="30" height="2700" fill="rgba(255,42,60,0.06)" transform="rotate(35 480 0)"/><rect x="-540" y="0" width="30" height="2700" fill="rgba(255,42,60,0.06)" transform="rotate(35 540 0)"/><rect x="-480" y="0" width="30" height="2700" fill="rgba(255,42,60,0.06)" transform="rotate(35 600 0)"/><rect x="-420" y="0" width="30" height="2700" fill="rgba(255,42,60,0.06)" transform="rotate(35 660 0)"/><rect x="-360" y="0" width="30" height="2700" fill="rgba(255,42,60,0.06)" transform="rotate(35 720 0)"/><rect x="-300" y="0" width="30" height="2700" fill="rgba(255,42,60,0.06)" transform="rotate(35 780 0)"/><rect x="-240" y="0" width="30" height="2700" fill="rgba(255,42,60,0.06)" transform="rotate(35 840 0)"/><rect x="-180" y="0" width="30" height="2700" fill="rgba(255,42,60,0.06)" transform="rotate(35 900 0)"/><rect x="-120" y="0" width="30" height="2700" fill="rgba(255,42,60,0.06)" transform="rotate(35 960 0)"/><rect x="-60" y="0" width="30" height="2700" fill="rgba(255,42,60,0.06)" transform="rotate(35 1020 0)"/><rect x="0" y="0" width="30" height="2700" fill="rgba(255,42,60,0.06)" transform="rotate(35 1080 0)"/><rect x="60" y="0" width="30" height="2700" fill="rgba(255,42,60,0.06)" transform="rotate(35 1140 0)"/><rect x="120" y="0" width="30" height="2700" fill="rgba(255,42,60,0.06)" transform="rotate(35 1200 0)"/><rect x="180" y="0" width="30" height="2700" fill="rgba(255,42,60,0.06)" transform="rotate(35 1260 0)"/><rect x="240" y="0" width="30" height="2700" fill="rgba(255,42,60,0.06)" transform="rotate(35 1320 0)"/><rect x="300" y="0" width="30" height="2700" fill="rgba(255,42,60,0.06)" transform="rotate(35 1380 0)"/><rect x="360" y="0" width="30" height="2700" fill="rgba(255,42,60,0.06)" transform="rotate(35 1440 0)"/><rect x="420" y="0" width="30" height="2700" fill="rgba(255,42,60,0.06)" transform="rotate(35 1500 0)"/><rect x="480" y="0" width="30" height="2700" fill="rgba(255,42,60,0.06)" transform="rotate(35 1560 0)"/><rect x="540" y="0" width="30" height="2700" fill="rgba(255,42,60,0.06)" transform="rotate(35 1620 0)"/><rect x="600" y="0" width="30" height="2700" fill="rgba(255,42,60,0.06)" transform="rotate(35 1680 0)"/><rect x="660" y="0" width="30" height="2700" fill="rgba(255,42,60,0.06)" transform="rotate(35 1740 0)"/><rect x="720" y="0" width="30" height="2700" fill="rgba(255,42,60,0.06)" transform="rotate(35 1800 0)"/><rect x="780" y="0" width="30" height="2700" fill="rgba(255,42,60,0.06)" transform="rotate(35 1860 0)"/><rect x="840" y="0" width="30" height="2700" fill="rgba(255,42,60,0.06)" transform="rotate(35 1920 0)"/><rect x="900" y="0" width="30" height="2700" fill="rgba(255,42,60,0.06)" transform="rotate(35 1980 0)"/><rect x="960" y="0" width="30" height="2700" fill="rgba(255,42,60,0.06)" transform="rotate(35 2040 0)"/><rect x="1020" y="0" width="30" height="2700" fill="rgba(255,42,60,0.06)" transform="rotate(35 2100 0)"/><rect x="1080" y="0" width="30" height="2700" fill="rgba(255,42,60,0.06)" transform="rotate(35 2160 0)"/><rect x="1140" y="0" width="30" height="2700" fill="rgba(255,42,60,0.06)" transform="rotate(35 2220 0)"/><rect x="1200" y="0" width="30" height="2700" fill="rgba(255,42,60,0.06)" transform="rotate(35 2280 0)"/><rect x="1260" y="0" width="30" height="2700" fill="rgba(255,42,60,0.06)" transform="rotate(35 2340 0)"/><rect x="1320" y="0" width="30" height="2700" fill="rgba(255,42,60,0.06)" transform="rotate(35 2400 0)"/><rect x="1380" y="0" width="30" height="2700" fill="rgba(255,42,60,0.06)" transform="rotate(35 2460 0)"/><rect x="1440" y="0" width="30" height="2700" fill="rgba(255,42,60,0.06)" transform="rotate(35 2520 0)"/><rect x="1500" y="0" width="30" height="2700" fill="rgba(255,42,60,0.06)" transform="rotate(35 2580 0)"/><rect x="1560" y="0" width="30" height="2700" fill="rgba(255,42,60,0.06)" transform="rotate(35 2640 0)"/><rect x="1620" y="0" width="30" height="2700" fill="rgba(255,42,60,0.06)" transform="rotate(35 2700 0)"/><rect x="1680" y="0" width="30" height="2700" fill="rgba(255,42,60,0.06)" transform="rotate(35 2760 0)"/><rect x="1740" y="0" width="30" height="2700" fill="rgba(255,42,60,0.06)" transform="rotate(35 2820 0)"/><rect x="1800" y="0" width="30" height="2700" fill="rgba(255,42,60,0.06)" transform="rotate(35 2880 0)"/><rect x="1860" y="0" width="30" height="2700" fill="rgba(255,42,60,0.06)" transform="rotate(35 2940 0)"/><rect x="1920" y="0" width="30" height="2700" fill="rgba(255,42,60,0.06)" transform="rotate(35 3000 0)"/><rect x="1980" y="0" width="30" height="2700" fill="rgba(255,42,60,0.06)" transform="rotate(35 3060 0)"/></g>
  <clipPath id="clip"><rect width="1920" height="1080"/></clipPath>
  <rect x="1" y="1" width="1918" height="1078" fill="none" stroke="rgba(255,42,60,0.35)" stroke-width="2" stroke-dasharray="14 10"/>
  <g transform="translate(960, 514)">
    <circle r="34" fill="none" stroke="#FF2A3C" stroke-width="3"/>
    <path d="M -16 -8 L -16 -14 L -9 -14 L -5 -20 L 9 -20 L 13 -14 L 16 -14 L 16 14 L -16 14 Z" fill="none" stroke="#FF2A3C" stroke-width="3" stroke-linejoin="round" transform="translate(0,-2) scale(0.9)"/>
    <circle r="7" fill="none" stroke="#FF2A3C" stroke-width="3" transform="translate(0,1)"/>
  </g>
  <text x="960" y="574" text-anchor="middle" font-family="Arial, sans-serif" font-weight="700" font-size="48.6" fill="#FF2A3C" letter-spacing="2">FOTO PENDIENTE</text>
  <text x="960" y="633.4" text-anchor="middle" font-family="Arial, sans-serif" font-weight="400" font-size="32.4" fill="#9a9a9d">Fachada o interior de noche con el neón de The Red Box / BRO's Kitchen</text>
  <text x="960" y="1058" text-anchor="middle" font-family="Arial, sans-serif" font-weight="400" font-size="12" fill="#5a5a5d" letter-spacing="1">1920×1080 — sustituir por foto real (mismo nombre de archivo)</text>
</svg>