<svg xmlns="http://www.w3.org/2000/svg" width="1400" height="1000" viewBox="0 0 1400 1000">
  <defs>
    <linearGradient id="bg" x1="0" y1="0" x2="1" y2="1">
      <stop offset="0" stop-color="#111113"/>
      <stop offset="1" stop-color="#0a0a0b"/>
    </linearGradient>
  </defs>
  <rect width="1400" height="1000" fill="url(#bg)"/>
  <g clip-path="url(#clip)"><rect x="-1000" y="0" width="30" height="2500" fill="rgba(255,42,60,0.06)" transform="rotate(35 0 0)"/><rect x="-940" y="0" width="30" height="2500" fill="rgba(255,42,60,0.06)" transform="rotate(35 60 0)"/><rect x="-880" y="0" width="30" height="2500" fill="rgba(255,42,60,0.06)" transform="rotate(35 120 0)"/><rect x="-820" y="0" width="30" height="2500" fill="rgba(255,42,60,0.06)" transform="rotate(35 180 0)"/><rect x="-760" y="0" width="30" height="2500" fill="rgba(255,42,60,0.06)" transform="rotate(35 240 0)"/><rect x="-700" y="0" width="30" height="2500" fill="rgba(255,42,60,0.06)" transform="rotate(35 300 0)"/><rect x="-640" y="0" width="30" height="2500" fill="rgba(255,42,60,0.06)" transform="rotate(35 360 0)"/><rect x="-580" y="0" width="30" height="2500" fill="rgba(255,42,60,0.06)" transform="rotate(35 420 0)"/><rect x="-520" y="0" width="30" height="2500" fill="rgba(255,42,60,0.06)" transform="rotate(35 480 0)"/><rect x="-460" y="0" width="30" height="2500" fill="rgba(255,42,60,0.06)" transform="rotate(35 540 0)"/><rect x="-400" y="0" width="30" height="2500" fill="rgba(255,42,60,0.06)" transform="rotate(35 600 0)"/><rect x="-340" y="0" width="30" height="2500" fill="rgba(255,42,60,0.06)" transform="rotate(35 660 0)"/><rect x="-280" y="0" width="30" height="2500" fill="rgba(255,42,60,0.06)" transform="rotate(35 720 0)"/><rect x="-220" y="0" width="30" height="2500" fill="rgba(255,42,60,0.06)" transform="rotate(35 780 0)"/><rect x="-160" y="0" width="30" height="2500" fill="rgba(255,42,60,0.06)" transform="rotate(35 840 0)"/><rect x="-100" y="0" width="30" height="2500" fill="rgba(255,42,60,0.06)" transform="rotate(35 900 0)"/><rect x="-40" y="0" width="30" height="2500" fill="rgba(255,42,60,0.06)" transform="rotate(35 960 0)"/><rect x="20" y="0" width="30" height="2500" fill="rgba(255,42,60,0.06)" transform="rotate(35 1020 0)"/><rect x="80" y="0" width="30" height="2500" fill="rgba(255,42,60,0.06)" transform="rotate(35 1080 0)"/><rect x="140" y="0" width="30" height="2500" fill="rgba(255,42,60,0.06)" transform="rotate(35 1140 0)"/><rect x="200" y="0" width="30" height="2500" fill="rgba(255,42,60,0.06)" transform="rotate(35 1200 0)"/><rect x="260" y="0" width="30" height="2500" fill="rgba(255,42,60,0.06)" transform="rotate(35 1260 0)"/><rect x="320" y="0" width="30" height="2500" fill="rgba(255,42,60,0.06)" transform="rotate(35 1320 0)"/><rect x="380" y="0" width="30" height="2500" fill="rgba(255,42,60,0.06)" transform="rotate(35 1380 0)"/><rect x="440" y="0" width="30" height="2500" fill="rgba(255,42,60,0.06)" transform="rotate(35 1440 0)"/><rect x="500" y="0" width="30" height="2500" fill="rgba(255,42,60,0.06)" transform="rotate(35 1500 0)"/><rect x="560" y="0" width="30" height="2500" fill="rgba(255,42,60,0.06)" transform="rotate(35 1560 0)"/><rect x="620" y="0" width="30" height="2500" fill="rgba(255,42,60,0.06)" transform="rotate(35 1620 0)"/><rect x="680" y="0" width="30" height="2500" fill="rgba(255,42,60,0.06)" transform="rotate(35 1680 0)"/><rect x="740" y="0" width="30" height="2500" fill="rgba(255,42,60,0.06)" transform="rotate(35 1740 0)"/><rect x="800" y="0" width="30" height="2500" fill="rgba(255,42,60,0.06)" transform="rotate(35 1800 0)"/><rect x="860" y="0" width="30" height="2500" fill="rgba(255,42,60,0.06)" transform="rotate(35 1860 0)"/><rect x="920" y="0" width="30" height="2500" fill="rgba(255,42,60,0.06)" transform="rotate(35 1920 0)"/><rect x="980" y="0" width="30" height="2500" fill="rgba(255,42,60,0.06)" transform="rotate(35 1980 0)"/><rect x="1040" y="0" width="30" height="2500" fill="rgba(255,42,60,0.06)" transform="rotate(35 2040 0)"/><rect x="1100" y="0" width="30" height="2500" fill="rgba(255,42,60,0.06)" transform="rotate(35 2100 0)"/><rect x="1160" y="0" width="30" height="2500" fill="rgba(255,42,60,0.06)" transform="rotate(35 2160 0)"/><rect x="1220" y="0" width="30" height="2500" fill="rgba(255,42,60,0.06)" transform="rotate(35 2220 0)"/><rect x="1280" y="0" width="30" height="2500" fill="rgba(255,42,60,0.06)" transform="rotate(35 2280 0)"/><rect x="1340" y="0" width="30" height="2500" fill="rgba(255,42,60,0.06)" transform="rotate(35 2340 0)"/><rect x="1400" y="0" width="30" height="2500" fill="rgba(255,42,60,0.06)" transform="rotate(35 2400 0)"/><rect x="1460" y="0" width="30" height="2500" fill="rgba(255,42,60,0.06)" transform="rotate(35 2460 0)"/></g>
  <clipPath id="clip"><rect width="1400" height="1000"/></clipPath>
  <rect x="1" y="1" width="1398" height="998" fill="none" stroke="rgba(255,42,60,0.35)" stroke-width="2" stroke-dasharray="14 10"/>
  <g transform="translate(700, 474)">
    <circle r="34" fill="none" stroke="#FF2A3C" stroke-width="3"/>
    <path d="M -16 -8 L -16 -14 L -9 -14 L -5 -20 L 9 -20 L 13 -14 L 16 -14 L 16 14 L -16 14 Z" fill="none" stroke="#FF2A3C" stroke-width="3" stroke-linejoin="round" transform="translate(0,-2) scale(0.9)"/>
    <circle r="7" fill="none" stroke="#FF2A3C" stroke-width="3" transform="translate(0,1)"/>
  </g>
  <text x="700" y="534" text-anchor="middle" font-family="Arial, sans-serif" font-weight="700" font-size="45" fill="#FF2A3C" letter-spacing="2">FOTO PENDIENTE</text>
  <text x="700" y="589" text-anchor="middle" font-family="Arial, sans-serif" font-weight="400" font-size="30" fill="#9a9a9d">Interior o terraza del local, ambiente urbano/neón</text>
  <text x="700" y="978" text-anchor="middle" font-family="Arial, sans-serif" font-weight="400" font-size="12" fill="#5a5a5d" letter-spacing="1">1400×1000 — sustituir por foto real (mismo nombre de archivo)</text>
</svg>